<svg width="39" height="37" viewBox="0 0 39 37" fill="none" xmlns="http://www.w3.org/2000/svg">
<path d="M28.3816 22.4214L21.8127 11.605L20.8377 10L19.7704 11.5466L16.1005 16.8598L10.9687 20.3697L10.7029 20.5514L10.5631 20.8412L8.0093 26.115L5.37095 27.4182L0 35.0544V37H39V34.386L34.9238 27.5592L28.3816 22.4214V22.4214ZM6.18995 28.3637L8.92385 27.0134L11.0506 32.2421L6.18995 28.3637V28.3637ZM16.924 33.6063L17.8353 28.1495L11.0506 26.786L18.6459 24.3594L16.9747 17.7284L20.772 12.2302L19.7593 16.7835L22.4939 20.4205L19.1516 20.2693L24.0129 23.7094L20.3677 26.0298L16.924 33.6063V33.6063ZM29.8863 30.7693L22.8988 33.6063L27.7602 29.8168L31.1246 26.115L33.9878 28.3637L29.8863 30.7693" fill="#CED4D7"/>
<path d="M5.22632 6.24451C5.40668 6.24451 5.57643 6.20174 5.7312 6.12672C5.94971 6.423 6.22381 6.66136 6.53388 6.82474C6.84395 6.98813 7.18233 7.07251 7.52481 7.07184C7.53854 7.07184 7.55289 7.06694 7.56724 7.06624C7.69768 7.59629 8.1414 7.98752 8.67374 7.98752C8.82914 7.98752 8.97954 7.95317 9.11684 7.89287C9.29814 8.2324 9.55501 8.51304 9.86218 8.70716C10.1693 8.90128 10.5162 9.00219 10.8686 8.99996C11.2377 9.00247 11.6004 8.89165 11.9174 8.67949C12.2345 8.46733 12.494 8.16187 12.6679 7.79611C13.2178 8.02495 13.8185 8.05034 14.3822 7.86859C14.9459 7.68683 15.4431 7.30744 15.8014 6.78578C15.9711 6.84538 16.1496 6.88745 16.3374 6.88745C17.1531 6.88745 17.8327 6.26765 18 5.44171C17.6714 5.66874 17.293 5.78821 16.9072 5.78667C16.6982 5.78667 16.5016 5.7446 16.3137 5.6843C15.7652 6.40928 14.8883 6.88604 13.8911 6.88604C13.5356 6.88409 13.1827 6.8195 12.8451 6.69464C12.475 7.40558 11.7274 7.89848 10.8524 7.89848C10.0168 7.89848 9.29907 7.44835 8.91464 6.79069C8.75702 6.85398 8.59086 6.88624 8.42348 6.88604C7.83373 6.88604 7.3432 6.49341 7.19904 5.96476C7.18219 5.96616 7.16783 5.97037 7.15161 5.97037C6.3428 5.97037 5.63322 5.59596 5.16516 5.02524C4.98677 5.10267 4.79722 5.1426 4.60598 5.14303C4.38755 5.14303 4.1841 5.08834 4 5C4.04181 5.69342 4.57228 6.24451 5.22632 6.24451" fill="#CED4D7"/>
<path d="M3.64814 7.9407C3.72372 7.9407 3.79931 7.93684 3.87427 7.92977C4.38659 8.36995 5.00358 8.66723 5.66425 8.79222C5.8985 9.1259 6.20805 9.39822 6.56721 9.58656C6.92636 9.77489 7.32475 9.87381 7.72927 9.8751H7.75151C8.08625 10.2343 8.49077 10.5197 8.93969 10.7132C9.38861 10.9068 9.87223 11.0044 10.3602 10.9998C10.8481 10.9953 11.3299 10.8888 11.7752 10.6869C12.2206 10.4851 12.6199 10.1923 12.948 9.8269C13.6051 9.92584 14.2758 9.87091 14.9086 9.66635C15.5413 9.46179 16.1193 9.11305 16.5979 8.64698C16.6639 8.65212 16.7313 8.65405 16.7967 8.65405C18.5632 8.65405 20 7.19264 20 5.39577C20 4.33988 19.4874 3.3714 18.6845 2.77051C18.6883 2.71267 18.6902 2.65483 18.6902 2.59635C18.6902 1.16451 17.5475 8.26355e-06 16.1425 8.26355e-06C15.7632 -0.000967554 15.3887 0.0844921 15.0466 0.250042C14.7045 0.415592 14.4036 0.656981 14.1664 0.956284C13.4786 0.859935 12.778 0.931205 12.1229 1.16416C11.4678 1.39712 10.8772 1.78503 10.4003 2.29558C10.0125 2.15554 9.5981 2.10718 9.18896 2.1542C8.82719 1.76405 8.39038 1.45287 7.90538 1.23979C7.42038 1.02672 6.89743 0.91624 6.36868 0.915154C5.09003 0.915154 3.91047 1.5501 3.18635 2.58478C2.57203 2.69883 2.01673 3.02733 1.61721 3.51304C1.21768 3.99876 0.999263 4.6109 1 5.24282C1 6.73057 2.18782 7.9407 3.64814 7.9407V7.9407ZM3.64814 3.76663C3.72563 3.76663 3.80185 3.77756 3.87617 3.78977C4.08783 3.29902 4.43637 2.88139 4.87908 2.58803C5.3218 2.29467 5.83947 2.13832 6.36868 2.13813C7.39262 2.13813 8.27554 2.71717 8.7386 3.56355C8.9687 3.43185 9.22821 3.36173 9.49258 3.35983C9.7243 3.36038 9.95295 3.41349 10.1617 3.51525C10.3705 3.61702 10.554 3.76485 10.6988 3.94786C11.2279 2.87976 12.3103 2.13878 13.5731 2.13878C14.0088 2.13878 14.423 2.22875 14.8022 2.38684C14.8524 2.04295 15.0297 1.73111 15.2982 1.51424C15.5667 1.29737 15.9066 1.1916 16.2491 1.21826C16.5917 1.24492 16.9116 1.40203 17.1441 1.6579C17.3767 1.91378 17.5048 2.24937 17.5024 2.59699C17.5024 2.90354 17.3995 3.18245 17.2318 3.41124C17.7169 3.51848 18.1456 3.8035 18.4354 4.21141C18.7252 4.61933 18.8557 5.12129 18.8016 5.62067C18.7475 6.12004 18.5127 6.58151 18.1424 6.91623C17.7722 7.25095 17.2926 7.43525 16.7961 7.43364C16.5803 7.43084 16.3664 7.39264 16.1628 7.32053C15.8652 7.73331 15.4757 8.06925 15.0257 8.30107C14.5757 8.53289 14.078 8.65404 13.5731 8.65469C13.178 8.65469 12.8045 8.57307 12.4545 8.44133C12.2568 8.84203 11.9528 9.1792 11.5766 9.41515C11.2004 9.6511 10.7667 9.77653 10.3241 9.77742C9.90185 9.77651 9.48747 9.66214 9.12329 9.44601C8.75912 9.22989 8.45823 8.91976 8.25141 8.54737C8.08563 8.61762 7.90773 8.65388 7.728 8.65405C7.42872 8.65325 7.13807 8.55254 6.90114 8.36756C6.6642 8.18257 6.49423 7.92364 6.41759 7.63094C6.40044 7.63158 6.38393 7.63608 6.36741 7.63608C5.50355 7.63608 4.74322 7.22156 4.24459 6.58726C4.04589 6.67889 3.8294 6.72424 3.61108 6.71999C3.39276 6.71573 3.17816 6.66197 2.9831 6.56267C2.78803 6.46336 2.61748 6.32105 2.484 6.1462C2.35051 5.97136 2.2575 5.76844 2.21182 5.5524C2.16614 5.33636 2.16894 5.1127 2.22003 4.8979C2.27112 4.68311 2.36919 4.48264 2.50702 4.31128C2.64485 4.13992 2.81892 4.00203 3.01641 3.90777C3.2139 3.81351 3.42978 3.76528 3.64814 3.76663" fill="#CED4D7"/>
<path d="M28.1162 12.8453C28.2521 12.8453 28.3811 12.8227 28.5038 12.7901C28.6888 12.9947 28.9282 13.1606 29.2031 13.2746C29.4779 13.3887 29.7807 13.4477 30.0875 13.4471C30.3209 13.4458 30.5521 13.4104 30.7708 13.3424C30.8951 13.5413 31.0824 13.7079 31.3122 13.8238C31.542 13.9398 31.8055 14.0007 32.0739 14C32.3302 14.0004 32.5821 13.9447 32.8045 13.8384C33.027 13.732 33.2122 13.5788 33.3418 13.394C33.4399 13.4277 33.5488 13.4466 33.6621 13.4466C34.0465 13.4466 34.368 13.233 34.4624 12.9437C34.4737 12.9437 34.4832 12.9463 34.4932 12.9463C35.0224 12.9463 35.4861 12.7417 35.7913 12.4298C35.9027 12.4703 36.026 12.4945 36.1562 12.4945C36.5495 12.4945 36.8792 12.2867 37 12C36.8698 12.0472 36.7297 12.0723 36.5877 12.0739C36.4458 12.0755 36.3049 12.0536 36.1732 12.0095C35.8379 12.3219 35.3269 12.525 34.7455 12.525C34.7336 12.525 34.7229 12.5229 34.7103 12.5229C34.6071 12.8122 34.2541 13.0263 33.8307 13.0263C33.7055 13.0263 33.5859 13.0068 33.4783 12.9737C33.2008 13.334 32.6836 13.5792 32.0827 13.5792C31.4542 13.5792 30.9162 13.3098 30.6507 12.9211C30.4083 12.9895 30.1545 13.025 29.8988 13.0263C29.1821 13.0263 28.5497 12.7659 28.1565 12.3693C28.0206 12.4024 27.8796 12.4245 27.7293 12.4245C27.4606 12.4245 27.2108 12.3651 27 12.2641C27.1017 12.439 27.2605 12.5863 27.4579 12.6891C27.6554 12.792 27.8836 12.8461 28.1162 12.8453" fill="#CED4D7"/>
<path d="M27.5805 14.238H27.6004C28.2211 14.8266 29.0172 15.1524 29.842 15.1554C29.9475 15.1554 30.053 15.1493 30.159 15.1385C30.6822 15.6889 31.3821 15.9977 32.1113 16C32.8405 16.0023 33.5421 15.6978 34.0681 15.1506C34.3604 15.1312 34.6458 15.0461 34.9061 14.9007C35.1664 14.7554 35.396 14.5529 35.5802 14.3062C36.0087 14.1988 36.4106 13.9922 36.7584 13.7005L36.8083 13.7012C38.0165 13.7012 39 12.6269 39 11.3065C39.0009 10.7712 38.8361 10.2511 38.532 9.82911C38.228 9.40717 37.8021 9.10781 37.3225 8.97885C37.0362 8.57765 36.6689 8.25276 36.2488 8.02905C35.8287 7.80535 35.3669 7.68877 34.8987 7.68825C34.1062 7.68825 33.3554 8.02695 32.7932 8.60837C32.5811 8.59968 32.3689 8.62335 32.1629 8.67868C31.8169 8.32715 31.4065 8.05839 30.9584 7.88985C30.5103 7.72131 30.0345 7.65677 29.5618 7.70042C29.3653 7.47807 29.129 7.30133 28.8675 7.18093C28.606 7.06053 28.3246 6.99897 28.0404 7.00001C26.884 7.00001 25.9417 8.01546 25.9205 9.27294C25.6331 9.538 25.4021 9.86724 25.2432 10.2381C25.0843 10.6089 25.0014 11.0126 25 11.4215C24.9988 12.9751 26.1576 14.238 27.5805 14.238V14.238ZM27.2747 9.9294C27.1521 9.75323 27.0856 9.53881 27.085 9.31824C27.087 9.05948 27.1786 8.81098 27.3417 8.62188C27.5047 8.43279 27.7274 8.31688 27.9655 8.29708C28.2037 8.27728 28.44 8.35503 28.6278 8.51495C28.8156 8.67488 28.9411 8.90533 28.9796 9.16072C29.2529 9.03742 29.546 8.974 29.842 8.97412C30.7282 8.97412 31.4883 9.53187 31.859 10.3344C31.9607 10.1969 32.0896 10.0859 32.2361 10.0095C32.3827 9.93311 32.5432 9.89326 32.7058 9.89289C32.8986 9.89289 33.0765 9.95171 33.2344 10.0464C33.3977 9.72289 33.6382 9.45283 33.9308 9.26435C34.2233 9.07587 34.5571 8.97588 34.8975 8.9748C35.6813 8.9748 36.3521 9.48658 36.6467 10.2167C36.6991 10.2073 36.7528 10.1992 36.8077 10.1992C36.9458 10.1928 37.0837 10.2167 37.2131 10.2695C37.3424 10.3224 37.4606 10.4031 37.5604 10.5067C37.6602 10.6103 37.7397 10.7347 37.7939 10.8725C37.8482 11.0102 37.8762 11.1585 37.8762 11.3082C37.8762 11.458 37.8482 11.6062 37.7939 11.744C37.7397 11.8817 37.6602 12.0062 37.5604 12.1098C37.4606 12.2134 37.3424 12.2941 37.2131 12.3469C37.0837 12.3998 36.9458 12.4237 36.8077 12.4173C36.6573 12.4173 36.5156 12.3808 36.3877 12.3186C36.2106 12.5637 35.9845 12.762 35.7263 12.8985C35.4682 13.0351 35.1848 13.1063 34.8975 13.1069C34.8862 13.1069 34.875 13.1028 34.8619 13.1028C34.8272 13.2453 34.7648 13.378 34.6788 13.4921C34.5929 13.6062 34.4853 13.699 34.3635 13.7642C34.2416 13.8295 34.1082 13.8657 33.9723 13.8705C33.8365 13.8752 33.7012 13.8484 33.5757 13.7918C33.4304 14.0716 33.2191 14.3046 32.9634 14.467C32.7077 14.6294 32.4168 14.7153 32.1204 14.7159C31.8099 14.7153 31.5057 14.6211 31.2418 14.4439C30.9779 14.2668 30.7646 14.0136 30.6258 13.7127C30.3751 13.8163 30.1092 13.8703 29.8408 13.8722C29.4866 13.8718 29.1374 13.7809 28.8218 13.6068C28.5061 13.4327 28.2328 13.1804 28.0242 12.8703C27.8809 12.9239 27.7307 12.9524 27.5792 12.9548C27.3935 12.955 27.2097 12.9155 27.0381 12.8387C26.8665 12.7618 26.7105 12.6491 26.5791 12.507C26.4478 12.3649 26.3435 12.1961 26.2724 12.0103C26.2012 11.8245 26.1646 11.6253 26.1645 11.4242C26.1651 11.0754 26.2754 10.7373 26.4773 10.4656C26.6791 10.1938 26.9603 10.0047 27.2747 9.9294" fill="#CED4D7"/>
</svg>
